<svg width="100" height="100" viewBox="0 0 100 100" fill="none" xmlns="http://www.w3.org/2000/svg">
<g clip-path="url(#clip0)">
<path d="M63.512 81.228V90.2145C63.512 92.6655 61.5255 94.652 59.0745 94.652H5.93213C3.48115 94.652 1.49463 92.6655 1.49463 90.2145V81.228C1.49463 78.7792 3.48115 76.7925 5.93213 76.7925H59.0745C61.5253 76.7925 63.512 78.7792 63.512 81.228Z" fill="#FF9F20"/>
<path d="M63.5121 81.2285V90.215C63.5121 92.5064 61.7746 94.3936 59.5449 94.6287C59.3895 94.6447 59.234 94.6525 59.0746 94.6525H16.8535C14.4047 94.6525 12.418 92.666 12.418 90.215V81.2285C12.418 78.7797 14.4045 76.793 16.8535 76.793H59.0746C61.5254 76.793 63.5121 78.7797 63.5121 81.2285Z" fill="#FFAF45"/>
<path d="M63.5125 81.2285V90.215C63.5125 92.5064 61.775 94.3936 59.5453 94.6287C59.1408 94.6447 58.7363 94.6525 58.3318 94.6525C54.0438 94.6525 49.7557 93.7697 45.7625 92.0004C43.0824 90.8148 40.5398 89.2287 38.2166 87.2461C37.5949 86.716 36.9932 86.1582 36.4053 85.5723C33.7811 82.948 31.7268 79.9711 30.2402 76.793H59.075C61.5258 76.793 63.5125 78.7797 63.5125 81.2285Z" fill="#FF9F20"/>
<path d="M66.5013 63.3672V72.3537C66.5013 74.8047 64.5147 76.7912 62.0638 76.7912H8.92139C6.47041 76.7912 4.48389 74.8047 4.48389 72.3537V63.3672C4.48389 60.9184 6.47041 58.9316 8.92139 58.9316H62.0638C64.5145 58.9316 66.5013 60.9182 66.5013 63.3672Z" fill="#FF9F20"/>
<path d="M63.5121 63.3667V72.3532C63.5121 74.8042 61.5256 76.7907 59.0746 76.7907H16.8535C14.4047 76.7907 12.418 74.8042 12.418 72.3532V63.3667C12.418 60.9179 14.4045 58.9312 16.8535 58.9312H59.0746C61.5254 58.9312 63.5121 60.9177 63.5121 63.3667Z" fill="#FFAF45"/>
<path d="M63.512 63.3667V72.3532C63.512 74.8042 61.5255 76.7907 59.0745 76.7907H33.2245C30.6003 71.1816 29.7474 64.9468 30.6681 58.9312H59.0745C61.5253 58.9312 63.512 60.9177 63.512 63.3667Z" fill="#FF9F20"/>
<path d="M63.512 9.78418V18.7707C63.512 21.2217 61.5255 23.2082 59.0745 23.2082H5.93213C3.48115 23.2082 1.49463 21.2217 1.49463 18.7707V9.78418C1.49463 7.33535 3.48115 5.34863 5.93213 5.34863H59.0745C61.5253 5.34863 63.512 7.33516 63.512 9.78418Z" fill="#FF9F20"/>
<path d="M63.5121 9.78418V18.7707C63.5121 21.2217 61.5256 23.2082 59.0746 23.2082H16.8535C14.4047 23.2082 12.418 21.2217 12.418 18.7707V9.78418C12.418 7.33535 14.4045 5.34863 16.8535 5.34863H59.0746C61.5254 5.34863 63.5121 7.33516 63.5121 9.78418Z" fill="#FFAF45"/>
<path d="M56.2176 5.34814H49.709V23.2097H56.2176V5.34814Z" fill="#FF9F20"/>
<path d="M44.9271 5.34814H41.6729V23.2097H44.9271V5.34814Z" fill="#FF9F20"/>
<path d="M71.4827 27.6455V36.632C71.4827 39.083 69.4962 41.0695 67.0452 41.0695H13.9028C11.4519 41.0695 9.46533 39.083 9.46533 36.632V27.6455C9.46533 25.1967 11.4519 23.21 13.9028 23.21H67.0452C69.4964 23.21 71.4827 25.1967 71.4827 27.6455Z" fill="#FF9F20"/>
<path d="M71.4828 27.6455V36.632C71.4828 39.083 69.4963 41.0695 67.0453 41.0695H24.8242C22.3754 41.0695 20.3887 39.083 20.3887 36.632V27.6455C20.3887 25.1967 22.3752 23.21 24.8242 23.21H67.0453C69.4963 23.21 71.4828 25.1967 71.4828 27.6455Z" fill="#FFAF45"/>
<path d="M64.0564 23.21H57.5479V41.0715H64.0564V23.21Z" fill="#FF9F20"/>
<path d="M52.7641 23.21H49.5098V41.0715H52.7641V23.21Z" fill="#FF9F20"/>
<path d="M71.4822 33.729V36.6321C71.4822 39.0831 69.4957 41.0696 67.0447 41.0696H42.0557C50.1635 33.4261 61.3818 30.9792 71.4822 33.729Z" fill="#DD9F3A"/>
<path d="M63.512 45.5063V54.4929C63.512 56.9438 61.5255 58.9304 59.0745 58.9304H5.93213C3.48115 58.9304 1.49463 56.9438 1.49463 54.4929V45.5063C1.49463 43.0575 3.48115 41.0708 5.93213 41.0708H59.0745C61.5253 41.0708 63.512 43.0575 63.512 45.5063Z" fill="#FF9F20"/>
<path d="M63.5121 45.5068V54.4934C63.5121 56.9443 61.5256 58.9309 59.0746 58.9309H16.8535C14.4047 58.9309 12.418 56.9443 12.418 54.4934V45.5068C12.418 43.058 14.4045 41.0713 16.8535 41.0713H59.0746C61.5254 41.0715 63.5121 43.058 63.5121 45.5068Z" fill="#FFAF45"/>
<path d="M63.5125 45.5068V54.4934C63.5125 56.9443 61.526 58.9309 59.075 58.9309H27.6797C28.6422 52.6303 31.5514 46.5709 36.4033 41.7189C36.6244 41.4979 36.8477 41.2826 37.0729 41.0713H59.075C61.5258 41.0715 63.5125 43.058 63.5125 45.5068Z" fill="#FF9F20"/>
<path d="M89.4237 85.5711C80.0963 94.8969 66.3079 97.0407 54.929 91.9999C52.2491 90.8139 49.7051 89.2293 47.3831 87.2463C46.7612 86.7166 46.1581 86.1573 45.5704 85.5711C33.4616 73.4608 33.4616 53.8282 45.5704 41.7178C57.6807 29.609 77.3133 29.609 89.4237 41.7178C90.0114 42.3055 90.569 42.9086 91.0989 43.5305C93.0819 45.851 94.6665 48.3963 95.8524 51.0764C100.893 62.4538 98.7495 76.2438 89.4237 85.5711Z" fill="#FFAF45"/>
<path d="M95.852 51.0765L54.9287 91.9999C52.2488 90.814 49.7049 89.2294 47.3828 87.2464L91.0986 43.5308C93.0815 45.8511 94.666 48.3966 95.852 51.0765Z" fill="#FF9F20"/>
<path d="M89.4232 63.6446C89.4232 75.7542 79.6063 85.5712 67.4967 85.5712C60.6611 85.5712 54.557 82.4442 50.535 77.5413C47.4312 73.7583 45.5703 68.9189 45.5703 63.6448C45.5703 51.5353 55.3873 41.7183 67.4969 41.7183C72.7723 41.7183 77.6121 43.5821 81.3945 46.6858C86.2961 50.7062 89.4232 56.8104 89.4232 63.6446Z" fill="#FFF2E0"/>
<path opacity="0.2" d="M81.3945 46.6857L50.5379 77.5424L50.5352 77.541C49.6293 76.4373 48.8293 75.2428 48.1518 73.974C47.3793 72.5322 46.7648 70.9955 46.3291 69.383C45.8344 67.5535 45.5703 65.6291 45.5703 63.6443C45.5703 51.5348 55.3873 41.7178 67.4969 41.7178C69.483 41.7178 71.4074 41.9816 73.2356 42.4766C74.8481 42.9123 76.3846 43.5281 77.8266 44.3006C79.0951 44.9785 80.2895 45.7799 81.3945 46.6857Z" fill="white"/>
<path opacity="0.2" d="M77.8264 44.3008L48.1518 73.9738C47.3793 72.532 46.7648 70.9953 46.3291 69.3828L73.2355 42.4766C74.8477 42.9123 76.3846 43.5283 77.8264 44.3008Z" fill="white"/>
<path d="M51.502 93.1584H5.93184C4.30898 93.1584 2.98906 91.8383 2.98906 90.2158V81.2293C2.98906 79.6066 4.30918 78.2865 5.93184 78.2865H8.9209H16.8537H34.8311C35.6566 78.2865 36.3256 77.6174 36.3256 76.792C36.3256 75.9666 35.6566 75.2975 34.8311 75.2975H16.8535H8.9209C7.29805 75.2975 5.97813 73.9773 5.97813 72.3547V63.3682C5.97813 61.7455 7.29824 60.4254 8.9209 60.4254H32.1078C32.9334 60.4254 33.6023 59.7562 33.6023 58.9309C33.6023 58.1055 32.9334 57.4363 32.1078 57.4363H5.93184C4.30898 57.4363 2.98906 56.1162 2.98906 54.4936V45.507C2.98906 43.8844 4.30918 42.5643 5.93184 42.5643H13.9025H25.8646H40.5764C41.402 42.5643 42.0709 41.8951 42.0709 41.0697C42.0709 40.2443 41.402 39.5752 40.5764 39.5752H25.8646H13.9025C12.2797 39.5752 10.9598 38.2551 10.9598 36.6324V27.6459C10.9598 26.0232 12.2799 24.7031 13.9025 24.7031H59.0744H67.0453C68.6682 24.7031 69.9881 26.0232 69.9881 27.6459V28.7605C69.9881 29.5859 70.657 30.2551 71.4826 30.2551C72.3082 30.2551 72.9771 29.5859 72.9771 28.7605V27.6459C72.9771 24.375 70.3162 21.7141 67.0453 21.7141H64.2213C64.7195 20.8461 65.0061 19.8418 65.0061 18.7713V9.78437C65.0061 6.51348 62.3451 3.85254 59.0742 3.85254H5.93184C2.66094 3.85371 0 6.51465 0 9.78535V18.7719C0 22.0428 2.66094 24.7037 5.93184 24.7037H8.75547C8.25723 25.5717 7.9707 26.576 7.9707 27.6465V36.633C7.9707 37.7037 8.25723 38.7078 8.75547 39.5758H5.93184C2.66094 39.5756 0 42.2365 0 45.5072V54.4937C0 57.0801 1.66465 59.284 3.97813 60.0934C3.35391 61.0324 2.98906 62.1582 2.98906 63.3682V72.3547C2.98906 73.5646 3.35391 74.6904 3.97813 75.6295C1.66465 76.4389 0 78.6428 0 81.2291V90.2156C0 93.4863 2.66094 96.1473 5.93184 96.1473H51.502C52.3275 96.1473 52.9965 95.4781 52.9965 94.6527C52.9965 93.8273 52.3271 93.1584 51.502 93.1584ZM2.98887 18.7719V9.78535C2.98887 8.16269 4.30898 6.84258 5.93164 6.84258H59.0742C60.6971 6.84258 62.017 8.16269 62.017 9.78535V18.7719C62.017 20.3945 60.6969 21.7146 59.0742 21.7146H13.9025H5.93184C4.30898 21.7146 2.98887 20.3945 2.98887 18.7719Z" fill="#171B1E"/>
<path d="M85.2206 36.3947C84.5294 35.9441 83.6032 36.1393 83.1526 36.8309C82.7019 37.5223 82.8972 38.4482 83.5886 38.8988C91.9933 44.376 97.0108 53.6268 97.0108 63.6445C97.0108 79.9186 83.7708 93.1586 67.4968 93.1586C51.2226 93.1586 37.9825 79.9186 37.9825 63.6445C37.9825 47.3705 51.2226 34.1305 67.4968 34.1305C71.7696 34.1305 75.8907 35.0232 79.745 36.7836C80.4964 37.1268 81.3825 36.7957 81.7253 36.0451C82.0683 35.2943 81.7376 34.4078 80.9868 34.0648C76.7399 32.125 72.2013 31.1416 67.4968 31.1416C49.5747 31.1416 34.9937 45.7225 34.9937 63.6445C34.9937 81.5666 49.5747 96.1475 67.4968 96.1475C85.4188 96.1475 99.9999 81.5668 99.9999 63.6447C99.9999 52.6125 94.4751 42.4256 85.2206 36.3947Z" fill="#171B1E"/>
<path d="M49.4678 73.2711C49.079 72.5432 48.1739 72.2682 47.4456 72.6576C46.7176 73.0465 46.4428 73.9521 46.8321 74.6801C47.9155 76.707 49.2962 78.5662 50.936 80.2061C55.502 84.7721 61.4997 87.0551 67.4971 87.0551C73.4946 87.0551 79.4922 84.7721 84.0583 80.2061C93.1901 71.0742 93.1901 56.2154 84.0583 47.0836C79.6344 42.6598 73.753 40.2236 67.4971 40.2236C61.2413 40.2236 55.3596 42.66 50.936 47.0836C45.0225 52.9969 42.7051 61.6908 44.8881 69.7729C45.1034 70.5697 45.9233 71.0412 46.7206 70.826C47.5173 70.6107 47.9887 69.7904 47.7735 68.9936C45.8688 61.9416 47.8905 54.3561 53.0497 49.1971C56.9087 45.3381 62.0397 43.2125 67.4973 43.2125C72.9549 43.2125 78.086 45.3379 81.945 49.1971C89.9116 57.1637 89.9116 70.126 81.945 78.0926C73.9786 86.059 61.0163 86.059 53.0497 78.0926C51.6174 76.6607 50.4124 75.0385 49.4678 73.2711Z" fill="#171B1E"/>
<path d="M62.2293 69.2796C62.2293 68.4542 61.5604 67.7851 60.7348 67.7851C59.9092 67.7851 59.2402 68.4542 59.2402 69.2796C59.2402 72.7702 62.1611 75.6808 66.0027 76.2899V77.1688C66.0027 77.9942 66.6717 78.6634 67.4973 78.6634C68.3229 78.6634 68.9918 77.9942 68.9918 77.1688V76.2899C72.8334 75.6808 75.7541 72.77 75.7541 69.2796C75.7541 65.7892 72.8334 62.8784 68.9918 62.2692V54.0392C71.1707 54.5468 72.7652 56.1339 72.7652 58.0093C72.7652 58.8347 73.4342 59.5038 74.2598 59.5038C75.0854 59.5038 75.7543 58.8347 75.7543 58.0093C75.7543 54.5187 72.8336 51.6081 68.992 50.9989V50.12C68.992 49.2946 68.323 48.6255 67.4975 48.6255C66.6719 48.6255 66.0029 49.2946 66.0029 50.12V50.9989C62.1613 51.6083 59.2404 54.5188 59.2404 58.0093C59.2404 61.4997 62.1613 64.4104 66.0029 65.0196V73.2497C63.8236 72.7419 62.2293 71.1548 62.2293 69.2796ZM72.7648 69.2796C72.7648 71.1548 71.1703 72.7419 68.9914 73.2497V65.3097C71.1703 65.8173 72.7648 67.4046 72.7648 69.2796ZM62.2293 58.0093C62.2293 56.1341 63.8238 54.547 66.0029 54.0392V61.9792C63.8236 61.4716 62.2293 59.8845 62.2293 58.0093Z" fill="#171B1E"/>
</g>
<defs>
<clipPath id="clip0">
<rect width="100" height="100" fill="white"/>
</clipPath>
</defs>
</svg>
