<svg width="88" height="100" viewBox="0 0 88 100" fill="none" xmlns="http://www.w3.org/2000/svg">
<path d="M70.6387 98.5349H7.01054C3.94765 98.5349 1.46484 96.0521 1.46484 92.9892V15.6497C1.46484 12.5868 3.94765 10.104 7.01054 10.104H70.6387C73.7016 10.104 76.1844 12.5868 76.1844 15.6497V92.9892C76.1844 96.0521 73.7016 98.5349 70.6387 98.5349Z" fill="#FFAF45"/>
<path d="M70.6388 10.104H63.5691V92.9892C63.5691 96.0519 61.0863 98.5349 58.0234 98.5349H70.6388C73.7017 98.5349 76.1845 96.0519 76.1845 92.9892V15.6497C76.1845 12.587 73.7017 10.104 70.6388 10.104Z" fill="#FFAF45"/>
<path d="M64.5113 89.3855H13.1378C11.5222 89.3855 10.2124 88.0757 10.2124 86.4601V10.104H67.4365V86.4601C67.4365 88.0757 66.1269 89.3855 64.5113 89.3855Z" fill="#FFF2E0"/>
<path d="M63.5688 10.104V89.3855H64.5112C66.1268 89.3855 67.4366 88.0757 67.4366 86.4601V10.104H63.5688Z" fill="#FF9F20"/>
<path d="M83.3712 68.0416C83.0851 68.0416 82.8388 67.8457 82.7669 67.5687C82.2364 65.5252 81.4245 63.5953 80.3747 61.8226C80.2452 61.6039 80.2626 61.3336 80.4103 61.1263C81.4583 59.6556 81.3259 57.6029 80.0066 56.2836L78.0304 54.3076C76.7109 52.9881 74.6583 52.8559 73.1876 53.9037C72.9806 54.0514 72.7103 54.0687 72.4913 53.9392C70.7187 52.8896 68.7888 52.0775 66.7453 51.5471C66.4683 51.4752 66.2724 51.2289 66.2724 50.9428C66.2724 49.2496 64.8997 47.877 63.2066 47.877H59.0097C57.3166 47.877 55.9439 49.2496 55.9439 50.9428C55.9439 51.2289 55.748 51.4752 55.4711 51.5471C53.4275 52.0775 51.4976 52.8894 49.725 53.9392C49.5062 54.0687 49.2359 54.0514 49.0287 53.9037C47.558 52.8557 45.5053 52.9881 44.1859 54.3076L42.2098 56.2836C40.8902 57.6029 40.758 59.6556 41.806 61.1263C41.9537 61.3334 41.9711 61.6037 41.8416 61.8226C40.792 63.5953 39.9799 65.5252 39.4494 67.5687C39.3775 67.8457 39.1312 68.0416 38.8451 68.0416C37.152 68.0416 35.7793 69.4142 35.7793 71.1074V75.3042C35.7793 76.9974 37.152 78.3701 38.8451 78.3701C39.1312 78.3701 39.3775 78.566 39.4494 78.8429C39.9799 80.8865 40.7918 82.8163 41.8416 84.589C41.9711 84.8077 41.9537 85.0781 41.806 85.2853C40.758 86.756 40.8904 88.8087 42.2099 90.128L44.1861 92.104C45.5056 93.4235 47.5582 93.5558 49.0289 92.5079C49.2359 92.3603 49.5062 92.3429 49.7252 92.4724C51.4978 93.522 53.4277 94.3341 55.4713 94.8646C55.7482 94.9364 55.9441 95.1827 55.9441 95.4689C55.9441 97.162 57.3168 98.5347 59.0099 98.5347H63.2068C64.8999 98.5347 66.2726 97.162 66.2726 95.4689C66.2726 95.1827 66.4685 94.9364 66.7455 94.8646C68.789 94.3341 70.7189 93.522 72.4915 92.4724C72.7103 92.3429 72.9806 92.3603 73.1878 92.5079C74.6585 93.556 76.7113 93.4235 78.0306 92.1042L80.0067 90.128C81.3263 88.8085 81.4585 86.756 80.4107 85.2851C80.263 85.0781 80.2456 84.8077 80.3751 84.5888C81.4247 82.8161 82.2368 80.8863 82.7673 78.8427C82.8392 78.5658 83.0855 78.3699 83.3716 78.3699C85.0648 78.3699 86.4374 76.9972 86.4374 75.3041V71.1072C86.437 69.4142 85.0644 68.0416 83.3712 68.0416Z" fill="#FFAF45"/>
<path d="M44.8129 8.9578V7.45311C44.8129 4.14589 42.1319 1.46484 38.8247 1.46484C35.5175 1.46484 32.8364 4.14589 32.8364 7.45311V8.9578C32.8364 9.591 32.3231 10.1043 31.6899 10.1043H22.6958V17.4681C22.6958 18.5648 23.5849 19.4539 24.6815 19.4539H52.9676C54.0643 19.4539 54.9534 18.5648 54.9534 17.4681V10.1041H45.9592C45.3262 10.1041 44.8129 9.591 44.8129 8.9578Z" fill="#FFAF45"/>
<path d="M38.8248 8.87226C39.666 8.87226 40.3478 8.19037 40.3478 7.34922C40.3478 6.50806 39.666 5.82617 38.8248 5.82617C37.9836 5.82617 37.3018 6.50806 37.3018 7.34922C37.3018 8.19037 37.9836 8.87226 38.8248 8.87226Z" fill="black"/>
<path d="M61.1079 89.289C69.9903 89.289 77.1909 82.0884 77.1909 73.206C77.1909 64.3236 69.9903 57.123 61.1079 57.123C52.2255 57.123 45.0249 64.3236 45.0249 73.206C45.0249 82.0884 52.2255 89.289 61.1079 89.289Z" fill="#FFF2E0"/>
<path d="M83.3707 68.0416C83.0845 68.0416 82.8382 67.8457 82.7664 67.5687C82.2359 65.5252 81.4238 63.5953 80.3742 61.8226C80.2447 61.6039 80.2621 61.3336 80.4097 61.1263C81.4578 59.6556 81.3253 57.6029 80.006 56.2836L78.0298 54.3076C76.7103 52.9881 74.6578 52.8557 73.1871 53.9037C72.9799 54.0514 72.7097 54.0687 72.4908 53.9392C70.7181 52.8896 68.7883 52.0775 66.7447 51.5471C66.4678 51.4752 66.2719 51.2291 66.2719 50.9428C66.2719 49.2496 64.8992 47.877 63.206 47.877H59.0092C57.9059 47.877 56.9414 48.4617 56.4014 49.3363C66.4316 52.6326 73.6746 62.0726 73.6746 73.2058C73.6746 84.339 66.4316 93.7792 56.4014 97.0753C56.9414 97.9499 57.9057 98.5347 59.009 98.5347H63.2059C64.899 98.5347 66.2717 97.162 66.2717 95.4689C66.2717 95.1827 66.4676 94.9364 66.7445 94.8646C68.7881 94.3341 70.7179 93.5222 72.4906 92.4724C72.7093 92.3429 72.9797 92.3603 73.1869 92.5079C74.6576 93.556 76.7103 93.4235 78.0296 92.1042L80.0058 90.128C81.3253 88.8085 81.4576 86.7558 80.4097 85.2851C80.2621 85.0781 80.2447 84.8077 80.3742 84.589C81.4238 82.8163 82.2359 80.8865 82.7664 78.8429C82.8382 78.566 83.0845 78.3701 83.3707 78.3701C85.0638 78.3701 86.4365 76.9974 86.4365 75.3042V71.1074C86.4365 69.4142 85.0638 68.0416 83.3707 68.0416Z" fill="#FF9F20"/>
<path d="M69.6699 59.5938C72.2035 63.5162 73.6748 68.189 73.6748 73.2058C73.6748 78.2226 72.2035 82.8955 69.6699 86.8179C74.1873 83.9705 77.1908 78.9404 77.1908 73.2058C77.1908 67.4715 74.1873 62.4414 69.6699 59.5938Z" fill="#FFF2E0"/>
<path d="M18.8857 32.0879H58.7636C59.5726 32.0879 60.2284 31.4322 60.2284 30.623C60.2284 29.8139 59.5726 29.1582 58.7636 29.1582H18.8857C18.0768 29.1582 17.4209 29.8139 17.4209 30.623C17.4209 31.4322 18.0768 32.0879 18.8857 32.0879Z" fill="#171B1E"/>
<path d="M18.8857 41.312H58.7636C59.5726 41.312 60.2284 40.6563 60.2284 39.8472C60.2284 39.038 59.5726 38.3823 58.7636 38.3823H18.8857C18.0768 38.3823 17.4209 39.038 17.4209 39.8472C17.4209 40.6563 18.0768 41.312 18.8857 41.312Z" fill="#171B1E"/>
<path d="M18.8857 50.5361H40.8904C41.6994 50.5361 42.3552 49.8805 42.3552 49.0713C42.3552 48.2621 41.6994 47.6064 40.8904 47.6064H18.8857C18.0768 47.6064 17.4209 48.2621 17.4209 49.0713C17.4209 49.8805 18.0768 50.5361 18.8857 50.5361Z" fill="#171B1E"/>
<path d="M34.9974 58.2959C34.9974 57.4867 34.3416 56.8311 33.5326 56.8311H18.8857C18.0768 56.8311 17.4209 57.4867 17.4209 58.2959C17.4209 59.1051 18.0768 59.7607 18.8857 59.7607H33.5326C34.3416 59.7607 34.9974 59.1049 34.9974 58.2959Z" fill="#171B1E"/>
<path d="M56.8702 79.4185C56.1779 78.9998 55.2773 79.2222 54.8589 79.9144C54.4404 80.6068 54.6624 81.5074 55.3548 81.9259C57.0302 82.9386 58.1759 83.2459 59.6433 83.3259V83.7882C59.6433 84.5974 60.2991 85.2531 61.1081 85.2531C61.9171 85.2531 62.573 84.5974 62.573 83.7882V83.1724C65.2247 82.5714 67.1212 80.4701 67.5005 78.0396C67.9335 75.2644 66.3525 72.8635 63.4726 71.923C63.1581 71.8203 62.8599 71.7267 62.573 71.6379V66.3064C63.3202 66.5892 63.7814 66.9652 63.8267 67.0031C64.437 67.5265 65.3564 67.4605 65.8851 66.8527C66.4161 66.2426 66.3521 65.3174 65.7419 64.7861C65.6652 64.7193 64.4624 63.6959 62.5728 63.2576V62.6416C62.5728 61.8324 61.9169 61.1768 61.1079 61.1768C60.2989 61.1768 59.6431 61.8324 59.6431 62.6416V63.1637C56.9779 63.6068 55.2751 65.4877 54.8691 67.716C54.2773 70.9629 56.5279 72.6424 59.6431 73.7705V80.3914C58.6251 80.3185 57.9747 80.0863 56.8702 79.4185ZM64.6058 77.5879C64.4146 78.8138 63.5767 79.6537 62.573 80.0843V74.7111C64.7028 75.4119 64.7044 76.9558 64.6058 77.5879ZM57.7515 68.2412C57.8894 67.4846 58.4601 66.4869 59.6152 66.1654C59.6245 66.1629 59.6337 66.1609 59.6433 66.1584V70.6047C58.363 69.9924 57.5159 69.5318 57.7515 68.2412Z" fill="#171B1E"/>
<path d="M84.0274 66.6241C83.5182 64.8481 82.8022 63.1368 81.8932 61.5229C83.0489 59.4942 82.726 56.9317 81.0424 55.2477L79.0663 53.2718C78.6422 52.8478 78.1624 52.5104 77.6495 52.261V15.65C77.6495 11.7844 74.5045 8.63924 70.6389 8.63924C69.6049 8.63924 47.38 8.63924 46.2778 8.63924V7.45311C46.2778 3.34335 42.9345 0 38.8247 0C34.715 0 31.3716 3.34335 31.3716 7.45311V8.63924C30.2599 8.63924 8.03084 8.63924 7.01053 8.63924C3.14492 8.63924 0 11.7844 0 15.65V92.9895C0 96.8551 3.14492 100 7.01053 100H70.6387C74.061 100 76.9612 97.4799 77.5416 94.1985C78.0948 93.9447 78.6127 93.5936 79.0661 93.1403L81.0422 91.1641C82.7258 89.4805 83.0487 86.918 81.893 84.8893C82.8018 83.2756 83.5178 81.5645 84.0272 79.7881C86.2157 79.4692 87.9018 77.5801 87.9018 75.3047V71.1079C87.902 68.8321 86.2159 66.943 84.0274 66.6241ZM31.6902 11.5689C33.13 11.5689 34.3015 10.3976 34.3015 8.9578V7.45311C34.3015 4.95878 36.3306 2.92968 38.8249 2.92968C41.3193 2.92968 43.3484 4.95897 43.3484 7.45311V8.9578C43.3484 10.3976 44.5198 11.5689 45.9597 11.5689H53.489V17.4679C53.489 17.7552 53.2554 17.9888 52.9681 17.9888H24.6818C24.3945 17.9888 24.1609 17.7552 24.1609 17.4679V11.5689H31.6902ZM2.92988 92.9893V15.65C2.92988 13.3998 4.76054 11.5689 7.01073 11.5689H8.74803V86.4602C8.74803 88.8811 10.7174 90.8504 13.1383 90.8504H34.705C35.514 90.8504 36.1699 90.1947 36.1699 89.3856C36.1699 88.5764 35.514 87.9207 34.705 87.9207H13.1381C12.3326 87.9207 11.6775 87.2657 11.6775 86.4602V11.5689H21.2312V17.4679C21.2312 19.3705 22.7791 20.9185 24.6818 20.9185H52.9679C54.8706 20.9185 56.4184 19.3705 56.4184 17.4679V11.5689H65.9721V43.7491C65.9721 44.5583 66.628 45.214 67.437 45.214C68.246 45.214 68.9018 44.5583 68.9018 43.7491V11.5689H70.6391C72.8893 11.5689 74.72 13.3996 74.72 15.65V51.78C74.0545 51.864 73.3989 52.0749 72.7913 52.421C71.1778 51.5122 69.4665 50.7962 67.6899 50.2868C67.3712 48.0983 65.4821 46.4122 63.2065 46.4122H59.0097C56.7343 46.4122 54.8452 48.0983 54.5263 50.2868C52.7497 50.7962 51.0382 51.5122 49.4249 52.421C47.3964 51.2655 44.8337 51.5882 43.1499 53.2718L41.1736 55.2479C39.49 56.9317 39.1671 59.4942 40.3228 61.5229C39.4138 63.1368 38.6978 64.8481 38.1886 66.6241C36.0001 66.943 34.314 68.8321 34.314 71.1075V75.3043C34.314 77.5797 36.0001 79.4688 38.1886 79.7877C38.6978 81.5637 39.4136 83.275 40.3228 84.8889C39.1671 86.9174 39.49 89.4801 41.1736 91.1639L43.1497 93.1399C44.8333 94.8236 47.3958 95.1469 49.4247 93.9906C51.0386 94.8996 52.7499 95.6156 54.5261 96.125C54.5739 96.4533 54.6608 96.7682 54.7755 97.0699H7.01073C4.76054 97.0701 2.92988 95.2395 2.92988 92.9893ZM70.6389 97.0701H67.4405C67.5549 96.7686 67.6421 96.4535 67.6899 96.1252C69.4661 95.616 71.1774 94.9 72.7913 93.991C73.2977 94.2795 73.8376 94.4758 74.3885 94.5819C73.7616 96.0393 72.3079 97.0701 70.6389 97.0701ZM84.9723 75.3045C84.9723 76.1874 84.2539 76.9055 83.3711 76.9055C82.42 76.9055 81.5885 77.5512 81.3491 78.475C80.8604 80.3579 80.1084 82.1637 79.1141 83.8428C78.6922 84.5555 78.7327 85.4557 79.2172 86.1354C79.8706 87.0522 79.7668 88.2959 78.9706 89.0924L76.9944 91.0684C76.1997 91.8633 74.9545 91.9686 74.0376 91.3153C73.3579 90.8309 72.4581 90.7903 71.7448 91.2123C70.0657 92.2065 68.2596 92.9582 66.377 93.4469C65.4528 93.6869 64.8073 94.5184 64.8073 95.4692C64.8073 96.352 64.0891 97.0701 63.2063 97.0701H59.0095C58.1266 97.0701 57.4085 96.3518 57.4085 95.4692C57.4085 94.5186 56.763 93.6869 55.8388 93.4469C53.9561 92.9582 52.1501 92.2063 50.4706 91.2119C49.7599 90.7914 48.8597 90.8295 48.1782 91.3153C47.2614 91.9688 46.0177 91.8651 45.2214 91.0684L43.2452 89.0924C42.4487 88.2959 42.3452 87.0524 42.9984 86.1354C43.4831 85.4553 43.5235 84.5553 43.1015 83.8428C42.1073 82.1637 41.3554 80.3579 40.8669 78.4752C40.6271 77.551 39.7954 76.9055 38.8447 76.9055C37.9618 76.9055 37.2437 76.1872 37.2437 75.3045V71.1077C37.2437 70.2249 37.962 69.5067 38.8448 69.5067C39.7954 69.5067 40.6271 68.8612 40.8669 67.937C41.3556 66.0542 42.1075 64.2483 43.1015 62.5696C43.5237 61.8569 43.4833 60.9569 42.9987 60.2768C42.3452 59.3598 42.4491 58.1163 43.2454 57.3198L45.2218 55.3436C46.0181 54.5472 47.2616 54.4436 48.1792 55.0976C48.8591 55.5813 49.7587 55.622 50.4714 55.1999C52.1499 54.2058 53.9558 53.454 55.839 52.9653C56.7632 52.7253 57.4087 51.8938 57.4087 50.9431C57.4087 50.0603 58.1268 49.3421 59.0097 49.3421H63.2065C64.0893 49.3421 64.8075 50.0605 64.8075 50.9431C64.8075 51.8937 65.453 52.7253 66.3772 52.9653C68.2604 53.454 70.0663 54.206 71.7454 55.2003C72.4577 55.6216 73.3573 55.5815 74.0378 55.097C74.5678 54.7194 75.2067 54.5964 75.8055 54.712C75.8508 54.7241 75.8969 54.7341 75.944 54.7419C76.3301 54.8417 76.6944 55.0433 76.9948 55.3436L78.9707 57.3194C79.7672 58.1159 79.8709 59.3595 79.2176 60.2766C78.7329 60.9567 78.6924 61.8567 79.1145 62.5692C80.1086 64.2481 80.8606 66.0542 81.3493 67.9366C81.5889 68.8608 82.4205 69.5065 83.3715 69.5065C84.2543 69.5065 84.9725 70.2249 84.9725 71.1075V75.3045H84.9723Z" fill="#171B1E"/>
<path d="M61.108 55.6582C52.9493 55.6582 45.9301 61.1935 44.0389 69.1191C43.851 69.906 44.3368 70.6963 45.1237 70.884C45.9102 71.0718 46.7006 70.5863 46.8885 69.7992C48.4637 63.198 54.311 58.5879 61.108 58.5879C69.1686 58.5879 75.7262 65.1455 75.7262 73.2062C75.7262 81.2669 69.1686 87.8245 61.108 87.8245C54.1309 87.8245 48.0973 82.8634 46.7616 76.0279C46.6065 75.2338 45.8366 74.7154 45.043 74.8713C44.2491 75.0263 43.7311 75.7957 43.8864 76.5898C45.4903 84.7972 52.7332 90.7542 61.1082 90.7542C70.7842 90.7542 78.6561 82.8822 78.6561 73.2062C78.6561 63.5303 70.784 55.6582 61.108 55.6582Z" fill="#171B1E"/>
</svg>
