<svg width="111" height="100" viewBox="0 0 111 100" fill="none" xmlns="http://www.w3.org/2000/svg">
<circle cx="55.5" cy="54.5" r="35.5" fill="#FFF2E0"/>
<path d="M103.861 45.5592L97.2457 45.0523C96.3596 44.9859 95.6047 44.3798 95.3592 43.5256C94.5413 40.6791 93.429 37.9578 92.0596 35.3937C91.6417 34.611 91.7603 33.6476 92.3488 32.9835L96.8035 27.9503C98.5933 25.9302 98.4983 22.8675 96.5925 20.9592L89.7653 14.132C87.8788 12.2455 84.8583 12.1312 82.8356 13.8664L77.7982 18.1883C77.1232 18.7684 76.1597 18.8718 75.3813 18.4405C72.8382 17.0299 70.132 15.879 67.2989 15.0164C66.4499 14.7592 65.8546 13.9941 65.8 13.1081L65.3931 6.40531C65.2292 3.71176 62.9972 1.61426 60.2994 1.61426H50.6442C47.9767 1.61426 45.7607 3.6672 45.5572 6.32796L45.0503 12.9433C44.9839 13.8277 44.3803 14.5843 43.5286 14.8281C40.4618 15.7058 37.5379 16.9264 34.8024 18.4422C34.0281 18.8735 33.0638 18.7659 32.3913 18.1875L27.3539 13.8664C25.3312 12.1304 22.3107 12.2447 20.4233 14.1312L13.597 20.9592C11.6912 22.8675 11.5978 25.9302 13.386 27.9503L17.8408 32.9835C18.4292 33.6476 18.5478 34.611 18.13 35.3937C16.7605 37.9578 15.6483 40.6791 14.8303 43.5256C14.5848 44.3798 13.8299 44.9859 12.9438 45.0523L6.32845 45.5592C3.66769 45.7619 1.61475 47.9787 1.61475 50.6462V60.3031C1.61475 63.0009 3.71309 65.2321 6.4058 65.3968L13.1077 65.8037C13.9938 65.8584 14.7597 66.4536 15.0161 67.3027C15.8786 70.1366 17.0303 72.8428 18.4402 75.385C18.8714 76.1634 18.768 77.1277 18.188 77.8019L13.8669 82.8393C12.1308 84.8628 12.2452 87.8834 14.1317 89.7707L20.9588 96.5979C22.8672 98.5037 25.929 98.5987 27.9491 96.8089L32.9823 92.3541C33.6464 91.7648 34.6107 91.6463 35.3925 92.065C36.176 92.4828 40.3139 92.619 45.7043 92.6215C51.7287 92.6232 59.3209 92.4592 65.5419 92.3432C71.9941 92.2196 76.9727 92.1448 77.2072 92.3533L82.2404 96.8089C84.2606 98.5987 87.3223 98.5037 89.2307 96.5971L96.0578 89.7699C97.9443 87.8834 98.0587 84.862 96.3227 82.8393L92.0015 77.8019C91.4215 77.1269 91.3181 76.1634 91.7493 75.385C93.16 72.8428 94.3109 70.1358 95.1734 67.3027C95.4307 66.4527 96.1957 65.8575 97.0818 65.8037L103.784 65.396C106.477 65.2321 108.575 63.0009 108.575 60.3031V50.6462C108.575 47.9787 106.522 45.7619 103.861 45.5592ZM56.8669 89.1276C36.6502 90.1541 20.04 73.543 21.0665 53.3246C21.9416 36.0108 36.0096 21.9428 53.3226 21.0668C73.5393 20.0403 90.1495 36.6514 89.1231 56.8723C88.2479 74.1836 74.1799 88.2525 56.8669 89.1276Z" fill="#FFAF45"/>
<path d="M55.0949 16.4243C33.7373 16.4243 16.4243 33.7373 16.4243 55.0974C16.4243 73.2174 28.8832 88.4271 45.7044 92.6212C48.7099 93.3711 51.8557 93.7704 55.0949 93.7704C58.7148 93.7704 62.2196 93.2719 65.542 92.343C81.8244 87.784 93.7654 72.8358 93.7654 55.0974C93.7654 33.7382 76.4524 16.4243 55.0949 16.4243ZM56.867 89.1274C36.6503 90.1538 20.0401 73.5428 21.0666 53.3244C21.9417 36.0105 36.0097 21.9426 53.3227 21.0666C73.5394 20.0401 90.1496 36.6511 89.1232 56.8721C88.248 74.1834 74.18 88.2522 56.867 89.1274Z" fill="#FF9F20"/>
<path d="M65.4136 81.7125C66.0348 81.5032 66.5888 81.1686 67.0487 80.7416C67.9474 79.9 68.4913 78.7088 68.4913 77.4209V73.584H76.0398V77.4209C76.0398 78.6163 76.5055 79.7294 77.2949 80.5541C77.7884 81.0719 78.408 81.4755 79.1167 81.7125H65.4136Z" fill="#FFF2E0"/>
<path d="M76.0397 73.4058V75.8152L74.3213 76.8635C73.0578 77.6344 71.4731 77.6344 70.2096 76.8635L68.4912 75.8152V73.4058H76.0397Z" fill="#FFF2E0"/>
<path d="M79.6411 59.9567V69.126C79.6411 70.509 78.9206 71.7927 77.7437 72.5115L74.3213 74.598C73.0577 75.369 71.473 75.369 70.2095 74.598L66.7871 72.5115C65.6076 71.7927 64.8896 70.509 64.8896 69.126V59.9567C64.8896 57.4338 66.9291 55.3901 69.4461 55.3901H75.0846C77.6008 55.391 79.6411 57.4338 79.6411 59.9567Z" fill="#FFF2E0"/>
<path d="M75.0849 55.3911H72.2266C74.7436 55.3911 76.7831 57.434 76.7831 59.9569V69.1262C76.7831 70.5091 76.0634 71.7928 74.8856 72.5116L71.4641 74.5982C71.2623 74.7218 71.0521 74.8226 70.8369 74.9059C71.971 75.3472 73.2598 75.2463 74.3224 74.5982L77.744 72.5116C78.9218 71.7928 79.6414 70.5091 79.6414 69.1262V59.9569C79.6414 57.434 77.601 55.3911 75.0849 55.3911Z" fill="#FFF2E0"/>
<path d="M79.6411 59.9567V64.2165L70.3928 61.2362C70.0506 61.1261 69.6782 61.1572 69.3596 61.3237L64.8896 63.6599V59.9567C64.8896 57.4338 66.93 55.3901 69.4461 55.3901H75.0846C77.6008 55.391 79.6411 57.4338 79.6411 59.9567Z" fill="#FFAF45"/>
<path d="M75.0847 55.3911H72.228C74.7442 55.3911 76.7845 57.434 76.7845 59.9569V63.296L79.6412 64.2166V59.9569C79.6412 57.434 77.6008 55.3911 75.0847 55.3911Z" fill="#FF9F20"/>
<path d="M58.1477 98.3869C57.444 98.3869 56.874 97.8161 56.874 97.1116V90.7098C56.874 87.0536 59.2019 83.8061 62.6596 82.6409L65.4145 81.7128C66.0358 81.5043 66.5889 81.1689 67.048 80.741C68.5259 81.2782 70.2669 81.6405 72.235 81.5985C74.1727 81.5556 75.8676 81.1302 77.2942 80.5552C77.7877 81.073 78.4073 81.4757 79.1168 81.7128L81.8717 82.6409C85.3278 83.8061 87.6573 87.0536 87.6573 90.7098V96.9544C87.6573 97.7454 87.0167 98.3869 86.2264 98.3869H58.1477Z" fill="#FFAF45"/>
<path d="M72.0867 81.6221L68.8475 93.0806C68.7643 93.3756 68.8383 93.6934 69.0426 93.9221L71.4536 96.6123C71.7975 96.9956 72.3927 97.0108 72.755 96.6442L75.4376 93.9381C75.6713 93.7027 75.7554 93.3563 75.6562 93.0394L72.0867 81.6221Z" fill="#E78300"/>
<path d="M33.0464 77.859C33.8106 77.6018 34.4932 77.1899 35.059 76.6636C36.1662 75.6279 36.8345 74.1609 36.8345 72.5754V67.8516H46.1282V72.5754C46.1282 74.0466 46.7016 75.4177 47.6734 76.4324C48.2812 77.0705 49.0437 77.5673 49.9164 77.859H33.0464Z" fill="#FFF2E0"/>
<path d="M46.1282 67.6328V70.5987L44.0131 71.8892C42.457 72.8383 40.5057 72.8383 38.9505 71.8892L36.8345 70.5987V67.6328H46.1282Z" fill="#FFF2E0"/>
<path d="M50.5618 51.0748V62.3626C50.5618 64.0658 49.6749 65.6463 48.2255 66.5307L44.0129 69.0998C42.4568 70.049 40.5055 70.049 38.9503 69.0998L34.7368 66.5307C33.2849 65.6463 32.4014 64.0658 32.4014 62.3626V51.0748C32.4014 47.9693 34.9125 45.4531 38.0104 45.4531H44.9519C48.0498 45.4531 50.5618 47.9693 50.5618 51.0748Z" fill="#FFF2E0"/>
<path d="M44.9521 45.4531H41.4338C44.5317 45.4531 47.0428 47.9693 47.0428 51.0748V62.3626C47.0428 64.0658 46.1559 65.6463 44.7066 66.5307L40.4939 69.0998C40.2459 69.2512 39.987 69.3756 39.7222 69.479C41.1185 70.0221 42.7049 69.8976 44.013 69.0998L48.2257 66.5307C49.675 65.6463 50.5619 64.0658 50.5619 62.3626V51.0748C50.5619 47.9693 48.05 45.4531 44.9521 45.4531Z" fill="#FFF2E0"/>
<path d="M50.5618 51.0748V56.3189L39.1756 52.6494C38.7544 52.514 38.2962 52.5527 37.9045 52.7578L32.4014 55.6329V51.0748C32.4014 47.9684 34.9125 45.4531 38.0104 45.4531H44.9528C48.0498 45.4531 50.5618 47.9693 50.5618 51.0748Z" fill="#FFAF45"/>
<path d="M44.952 45.4531H41.4346C44.5325 45.4531 47.0444 47.9693 47.0444 51.0748V55.1857L50.5619 56.3189V51.0748C50.5619 47.9693 48.0499 45.4531 44.952 45.4531Z" fill="#FF9F20"/>
<path d="M23.4464 98.3867C22.9412 98.3867 22.5317 97.9773 22.5317 97.472V88.9349C22.5317 84.4347 25.3976 80.4364 29.6557 79.0014L33.0462 77.8589C33.812 77.6017 34.4921 77.1889 35.0571 76.6626C36.878 77.3234 39.0209 77.7689 41.4437 77.7177C43.8287 77.6655 45.9153 77.1418 47.6723 76.4331C48.2802 77.0703 49.0427 77.5663 49.9161 77.8589L53.3074 79.0014C57.563 80.4364 60.4305 84.4347 60.4305 88.9349V98.3867H23.4464Z" fill="#FFAF45"/>
<path d="M41.2613 77.748L37.274 91.8539C37.1714 92.2179 37.2614 92.6088 37.5136 92.8904L40.4812 96.2019C40.9049 96.6743 41.638 96.6928 42.0844 96.2422L45.3866 92.9098C45.6741 92.6197 45.7783 92.1943 45.6556 91.8043L41.2613 77.748Z" fill="#E78300"/>
<path d="M103.985 43.95L97.3687 43.4448C97.1535 43.4288 96.9693 43.2825 96.9122 43.0808C96.0749 40.167 94.9214 37.3246 93.483 34.6344C93.3838 34.4486 93.4141 34.2149 93.557 34.0527L98.0126 29.0195C100.362 26.3663 100.24 22.3243 97.7335 19.8182L90.9063 12.9902C88.4381 10.5237 84.4314 10.3707 81.7833 12.643L76.7467 16.9641C76.5828 17.1054 76.3482 17.1314 76.165 17.0297C73.5051 15.5543 70.6804 14.358 67.7682 13.4728C67.5673 13.4122 67.4244 13.2265 67.4109 13.0104L67.0041 6.30848C66.788 2.77089 63.8431 0 60.2996 0H50.6444C47.1556 0 44.2132 2.72549 43.9475 6.20508L43.4423 12.8212C43.4263 13.0373 43.2817 13.2206 43.0833 13.2769C39.9349 14.1798 36.8858 15.4425 34.0199 17.0322C33.8383 17.1331 33.6063 17.1054 33.4423 16.965L28.4067 12.643C25.7585 10.3698 21.751 10.5228 19.2836 12.9911L12.4564 19.8182C9.95032 22.3252 9.82758 26.3663 12.1764 29.0204L16.6321 34.0527C16.7758 34.2149 16.8052 34.4486 16.706 34.6344C15.2685 37.3246 14.1151 40.1661 13.2777 43.0808C13.2197 43.2825 13.0365 43.4288 12.8212 43.4448L6.20424 43.9509C2.72549 44.2157 0 47.1581 0 50.6477V60.303C0 63.8473 2.77089 66.7922 6.30848 67.0074L13.0096 67.4152C13.2256 67.4286 13.4114 67.5715 13.4719 67.7724C14.3572 70.6846 15.5543 73.5093 17.028 76.1692C17.1306 76.3533 17.1045 76.587 16.9633 76.7518L12.6422 81.7883C10.3698 84.4364 10.5228 88.444 12.9894 90.9114L19.8166 97.7394C20.4261 98.3481 21.1339 98.8281 21.9216 99.1652C22.7421 99.5158 23.6896 99.1358 24.0402 98.3161C24.1679 98.0194 24.1974 97.7066 24.1469 97.4107V88.9433C24.1469 85.1334 26.5672 81.758 30.1687 80.5449L33.56 79.405C34.2124 79.1855 34.8202 78.877 35.3776 78.4869C36.6151 78.8711 37.8803 79.1259 39.1623 79.2528L35.5558 92.0034C35.4045 92.5364 35.5373 93.1089 35.9072 93.5209L40.0594 98.1513C40.3561 98.4826 40.7765 98.6759 41.2212 98.6877H41.2615C41.6911 98.6877 42.1039 98.5162 42.4074 98.2102L47 93.5797C47.4212 93.1543 47.5734 92.5322 47.3943 91.9606L43.4036 79.204C44.7361 79.0401 46.0492 78.7383 47.3287 78.2969C47.9534 78.7753 48.6545 79.1536 49.4027 79.4041L52.7923 80.5441C55.0958 81.32 56.9983 83.0359 58.013 85.2528C58.5241 86.3692 58.7931 87.5571 58.8133 88.7836C58.8133 88.813 58.815 88.8391 58.8167 88.8685C58.8183 88.8937 58.8175 88.9181 58.8175 88.9433V98.3859C58.8175 99.2779 59.5396 100 60.4316 100C61.3236 100 62.0457 99.2779 62.0457 98.3859V88.9433C62.0457 88.8593 62.0449 88.7777 62.0407 88.6953C62.0171 87.4528 61.8053 86.2406 61.4118 85.0754C61.949 84.6971 62.5384 84.3969 63.1739 84.1826L65.9305 83.2553C66.4408 83.083 66.9192 82.8484 67.3614 82.5542C68.2247 82.8131 69.1032 82.998 69.9927 83.1073L67.1604 93.1199C67.0099 93.652 67.1428 94.2245 67.5118 94.6373L70.8855 98.3985C71.1823 98.7289 71.6026 98.9231 72.0465 98.934C72.0599 98.9349 72.0742 98.9349 72.0868 98.9349C72.5173 98.9349 72.93 98.7634 73.2335 98.4574L76.9636 94.6953C77.3848 94.2708 77.537 93.6478 77.3579 93.077L74.2238 83.0569C75.1503 82.9215 76.0633 82.7046 76.9577 82.4062C77.4579 82.7711 78.0086 83.0569 78.603 83.2553L81.3562 84.1826C84.1599 85.1266 86.043 87.7521 86.043 90.7155V97.3207C86.043 97.3266 86.0438 97.3325 86.0438 97.3384C85.9732 97.6553 85.9959 97.9958 86.1329 98.3178C86.3936 98.9323 86.9904 99.3014 87.6193 99.3014C87.8294 99.3014 88.0438 99.2602 88.2489 99.1728C89.0442 98.8348 89.7588 98.3523 90.3725 97.7386L97.1997 90.9105C99.6671 88.4431 99.8201 84.4356 97.5477 81.7875L93.2266 76.7509C93.0854 76.587 93.0593 76.3524 93.161 76.1683C94.6356 73.5093 95.8319 70.6837 96.7171 67.7716C96.7785 67.5707 96.9643 67.4278 97.1804 67.4143L103.881 67.0066C107.419 66.7914 110.19 63.8465 110.19 60.303V50.6469C110.19 47.1581 107.464 44.2157 103.985 43.95ZM48.9479 54.1324L39.0119 50.9344C38.6016 50.8024 38.1535 50.8403 37.7702 51.0403L34.0148 53.0008V51.1076C34.0148 48.9 35.8072 47.1043 38.0098 47.1043H44.953C47.1556 47.1043 48.9479 48.9 48.9479 51.1076V54.1324ZM34.0148 56.6427L38.6655 54.2139L48.9479 57.5237V62.3887C48.9479 63.5203 48.3485 64.5879 47.3842 65.1756L43.1724 67.7439C42.13 68.3794 40.8336 68.3794 39.7903 67.7439L35.5777 65.1756C34.6134 64.5879 34.0148 63.5203 34.0148 62.3887V56.6427ZM41.4095 76.1187C40.1611 76.1456 38.9227 76.0263 37.7096 75.7648C38.1897 74.7863 38.4494 73.7009 38.4494 72.5929V70.6921C39.4003 71.1965 40.4402 71.4513 41.4809 71.4513C42.5217 71.4513 43.5616 71.1965 44.5124 70.6913V72.5929C44.5124 73.6404 44.7369 74.6568 45.1606 75.5849C43.9349 75.9102 42.6798 76.091 41.4095 76.1187ZM41.3204 94.7222L38.9043 92.027L41.3397 83.4175L44.024 91.9967L41.3204 94.7222ZM78.0271 62.0247L70.3525 59.5539C69.9414 59.4219 69.4942 59.4598 69.1108 59.6599L66.5039 61.0218V59.9835C66.5039 58.3576 67.8229 57.0344 69.4454 57.0344H75.0855C76.7072 57.0344 78.0271 58.3576 78.0271 59.9835V62.0247ZM66.5039 64.6636L70.0061 62.8343L78.0271 65.416V69.147C78.0271 69.9607 77.5967 70.7291 76.9023 71.152L73.4815 73.2377C72.7308 73.6951 71.7993 73.6951 71.0494 73.2377L67.6278 71.152C66.9343 70.7291 66.5039 69.9607 66.5039 69.147V64.6636ZM72.2003 79.996C71.3353 80.0136 70.4786 79.9413 69.6346 79.7858C69.9406 79.0468 70.1053 78.249 70.1053 77.4361V76.3709C70.7972 76.6635 71.5303 76.8115 72.2651 76.8115C72.999 76.8115 73.7329 76.6635 74.4248 76.3709V77.4361C74.4248 78.2062 74.5677 78.956 74.8392 79.6563C73.9742 79.8615 73.0914 79.9766 72.2003 79.996ZM72.1465 94.9685L70.5089 93.1434L72.165 87.2889L73.9868 93.1131L72.1465 94.9685ZM106.962 60.303C106.962 62.1441 105.522 63.6733 103.686 63.7851L96.9845 64.1928C95.4284 64.287 94.0799 65.3488 93.6285 66.8334C92.8096 69.5286 91.7025 72.1432 90.338 74.6047C89.5848 75.9624 89.7605 77.6706 90.776 78.8535L95.0971 83.89C96.2775 85.2662 96.1984 87.3477 94.9164 88.6289L89.2712 94.275V90.7155C89.2712 86.365 86.5045 82.5096 82.3869 81.1233L80.2103 80.3902C86.4852 74.1457 90.2918 65.7271 90.7357 56.9537C90.7802 56.0634 90.0951 55.3051 89.2048 55.2606C88.312 55.2135 87.5562 55.9012 87.5117 56.7906C87.1039 64.8401 83.579 72.5652 77.7715 78.2633C77.6933 77.9977 77.653 77.7194 77.653 77.4361V74.4752L78.5836 73.9077C80.2314 72.9031 81.2553 71.0788 81.2553 69.147V64.2618C81.2553 64.2559 81.2553 64.2508 81.2553 64.2449V59.9835C81.2553 56.5771 78.4878 53.8062 75.0855 53.8062H69.4454C66.0432 53.8062 63.2756 56.5771 63.2756 59.9835V63.6581V63.6649V69.147C63.2756 71.0788 64.2996 72.9031 65.9473 73.9086L66.878 74.4752V77.4361C66.878 78.2431 66.5392 79.0208 65.9482 79.5706C65.6438 79.8539 65.2916 80.0641 64.9007 80.196L62.1441 81.1233C61.3681 81.3848 60.6401 81.7345 59.9625 82.1641C58.4888 79.9918 56.3308 78.3297 53.8222 77.4848L50.4309 76.344C49.818 76.1389 49.2833 75.7993 48.8386 75.3327C48.1307 74.5929 47.7407 73.6202 47.7407 72.5929V68.7401L49.0647 67.933C50.9832 66.7628 52.1753 64.6384 52.1753 62.3896V56.3703C52.1753 56.3644 52.1753 56.3593 52.1753 56.3535V51.1076C52.1753 47.1202 48.9353 43.876 44.9521 43.876H38.0089C34.0266 43.876 30.7858 47.1202 30.7858 51.1076V55.638V55.6448V62.3896C30.7858 64.6392 31.9779 66.7628 33.8972 67.933L35.2212 68.7401V72.5929C35.2212 73.6908 34.7605 74.7484 33.956 75.4966C33.5432 75.8808 33.0649 76.1658 32.5319 76.3449L29.1389 77.4857C24.2226 79.1418 20.9187 83.7462 20.9187 88.9433V94.275L15.2727 88.6289C13.9915 87.3469 13.9125 85.2662 15.0928 83.89L19.4139 78.8535C20.4294 77.6706 20.6051 75.9624 19.8519 74.6038C18.4874 72.1423 17.3803 69.5286 16.5606 66.8334C16.11 65.3488 14.7615 64.287 13.2054 64.1928L6.50436 63.7851C4.66747 63.6733 3.22822 62.1441 3.22822 60.303V50.6477C3.22822 48.8352 4.64393 47.3069 6.45056 47.169L13.0676 46.6638C14.6211 46.5452 15.9528 45.4633 16.3807 43.9719C17.1558 41.275 18.2226 38.6453 19.5534 36.1561C20.2857 34.7858 20.0831 33.0808 19.0499 31.9131L14.5942 26.88C13.3736 25.5021 13.4375 23.4029 14.7388 22.1007L21.5669 15.2735C22.8472 13.9915 24.9288 13.9116 26.3041 15.0919L31.3406 19.4139C32.5243 20.4294 34.2309 20.6068 35.5861 19.8544C38.2376 18.384 41.0598 17.2155 43.9736 16.3799C45.4624 15.9536 46.5427 14.622 46.6612 13.0667L47.1665 6.45056C47.3052 4.64393 48.8327 3.22738 50.6452 3.22738H60.2996C62.1407 3.22738 63.6699 4.66663 63.7817 6.50436L64.1895 13.2063C64.2836 14.7624 65.3454 16.1108 66.83 16.5614C69.5244 17.3803 72.1389 18.4883 74.5996 19.8527C75.9582 20.606 77.6656 20.4303 78.8493 19.4147L83.8858 15.0928C85.2612 13.9125 87.3427 13.9923 88.6239 15.2735L95.4511 22.1015C96.7524 23.4029 96.8163 25.5021 95.5965 26.88L91.1401 31.9131C90.1068 33.0808 89.9042 34.7858 90.6365 36.1561C91.9681 38.6462 93.035 41.2758 93.8092 43.9719C94.2371 45.4633 95.5696 46.5452 97.1232 46.6638L103.739 47.1698C105.546 47.3077 106.962 48.8352 106.962 50.6477V60.303Z" fill="#171B1E"/>
<path d="M53.2412 19.4561C44.4679 19.8991 36.1745 23.6049 29.8896 29.8906C23.6038 36.1764 19.8981 44.4697 19.455 53.244C19.0709 60.8193 21.0313 68.1627 25.1238 74.4804C25.4323 74.9579 25.951 75.2177 26.4798 75.2177C26.7808 75.2177 27.0851 75.1336 27.3558 74.9579C28.104 74.4729 28.3175 73.4741 27.8333 72.7259C24.1116 66.9807 22.3293 60.3006 22.6791 53.407C23.0818 45.4332 26.4537 37.8923 32.172 32.1739C37.8904 26.4548 45.4313 23.0828 53.4043 22.6801C69.9363 21.8411 84.4213 33.4787 87.1165 49.7509C87.262 50.6303 88.0934 51.2238 88.9727 51.0792C89.8521 50.9338 90.4473 50.1023 90.3019 49.223C87.3376 31.3307 71.4016 18.533 53.2412 19.4561Z" fill="#171B1E"/>
</svg>
